<svg width="154" height="21" viewBox="0 0 154 21" fill="none" xmlns="http://www.w3.org/2000/svg">
<path d="M1.34146 16.394V5.08042H6.23861C7.25144 5.08042 8.12419 5.24743 8.85688 5.58145C9.58957 5.90469 10.1552 6.37339 10.5539 6.98756C10.9526 7.60172 11.1519 8.33441 11.1519 9.18561C11.1519 10.026 10.9526 10.7533 10.5539 11.3675C10.1552 11.9709 9.58957 12.4342 8.85688 12.7575C8.12419 13.0807 7.25144 13.2423 6.23861 13.2423H2.79606L3.95974 12.0948V16.394H1.34146ZM8.53364 16.394L5.70525 12.2888H8.50131L11.362 16.394H8.53364ZM3.95974 12.3857L2.79606 11.1574H6.09315C6.90126 11.1574 7.50464 10.985 7.90331 10.6402C8.30198 10.2846 8.50131 9.79978 8.50131 9.18561C8.50131 8.56068 8.30198 8.07581 7.90331 7.73102C7.50464 7.38622 6.90126 7.21383 6.09315 7.21383H2.79606L3.95974 5.96934V12.3857ZM18.7215 16.5879C17.8272 16.5879 16.9975 16.4424 16.2325 16.1515C15.4783 15.8606 14.821 15.4512 14.2607 14.9232C13.7112 14.3952 13.2802 13.7757 12.9678 13.0645C12.6661 12.3534 12.5152 11.5776 12.5152 10.7372C12.5152 9.89675 12.6661 9.12097 12.9678 8.40983C13.2802 7.69869 13.7166 7.07914 14.2769 6.55118C14.8372 6.02321 15.4944 5.61377 16.2487 5.32285C17.0029 5.03193 17.8218 4.88647 18.7053 4.88647C19.5996 4.88647 20.4185 5.03193 21.162 5.32285C21.9162 5.61377 22.5681 6.02321 23.1176 6.55118C23.6779 7.07914 24.1143 7.69869 24.4268 8.40983C24.7392 9.11019 24.8955 9.88598 24.8955 10.7372C24.8955 11.5776 24.7392 12.3588 24.4268 13.0807C24.1143 13.7918 23.6779 14.4114 23.1176 14.9394C22.5681 15.4565 21.9162 15.8606 21.162 16.1515C20.4185 16.4424 19.605 16.5879 18.7215 16.5879ZM18.7053 14.3575C19.2118 14.3575 19.6751 14.2713 20.0953 14.0989C20.5263 13.9265 20.9034 13.6787 21.2266 13.3555C21.5499 13.0322 21.7977 12.6497 21.9701 12.2079C22.1533 11.7662 22.2449 11.2759 22.2449 10.7372C22.2449 10.1984 22.1533 9.70819 21.9701 9.26643C21.7977 8.82466 21.5499 8.44215 21.2266 8.11891C20.9142 7.79567 20.5424 7.54785 20.1114 7.37545C19.6805 7.20305 19.2118 7.11685 18.7053 7.11685C18.1989 7.11685 17.7302 7.20305 17.2992 7.37545C16.879 7.54785 16.5073 7.79567 16.184 8.11891C15.8608 8.44215 15.6076 8.82466 15.4244 9.26643C15.252 9.70819 15.1658 10.1984 15.1658 10.7372C15.1658 11.2651 15.252 11.7554 15.4244 12.2079C15.6076 12.6497 15.8554 13.0322 16.1679 13.3555C16.4911 13.6787 16.8682 13.9265 17.2992 14.0989C17.7302 14.2713 18.1989 14.3575 18.7053 14.3575ZM25.2184 16.394L30.261 5.08042H32.847L37.9058 16.394H35.1582L31.0207 6.40572H32.0551L27.9014 16.394H25.2184ZM27.7397 13.9696L28.4347 11.9817H34.2531L34.9642 13.9696H27.7397ZM39.0795 16.394V5.08042H44.2191C45.4474 5.08042 46.5303 5.31746 47.4677 5.79155C48.4051 6.25487 49.1378 6.90675 49.6658 7.74718C50.1937 8.58761 50.4577 9.58428 50.4577 10.7372C50.4577 11.8793 50.1937 12.876 49.6658 13.7272C49.1378 14.5676 48.4051 15.2249 47.4677 15.699C46.5303 16.1623 45.4474 16.394 44.2191 16.394H39.0795ZM41.6978 14.2444H44.0898C44.8441 14.2444 45.4959 14.1043 46.0454 13.8242C46.6057 13.5332 47.0367 13.1238 47.3384 12.5958C47.6509 12.0679 47.8071 11.4483 47.8071 10.7372C47.8071 10.0153 47.6509 9.39572 47.3384 8.87853C47.0367 8.35057 46.6057 7.94651 46.0454 7.66637C45.4959 7.37545 44.8441 7.22999 44.0898 7.22999H41.6978V14.2444ZM59.353 16.394V7.21383H55.7327V5.08042H65.5916V7.21383H61.9713V16.394H59.353ZM72.3377 16.5879C71.4434 16.5879 70.6137 16.4424 69.8487 16.1515C69.0945 15.8606 68.4372 15.4512 67.8769 14.9232C67.3274 14.3952 66.8964 13.7757 66.5839 13.0645C66.2822 12.3534 66.1314 11.5776 66.1314 10.7372C66.1314 9.89675 66.2822 9.12097 66.5839 8.40983C66.8964 7.69869 67.3328 7.07914 67.8931 6.55118C68.4534 6.02321 69.1106 5.61377 69.8649 5.32285C70.6191 5.03193 71.438 4.88647 72.3215 4.88647C73.2158 4.88647 74.0347 5.03193 74.7782 5.32285C75.5324 5.61377 76.1843 6.02321 76.7338 6.55118C77.2941 7.07914 77.7305 7.69869 78.0429 8.40983C78.3554 9.11019 78.5116 9.88598 78.5116 10.7372C78.5116 11.5776 78.3554 12.3588 78.0429 13.0807C77.7305 13.7918 77.2941 14.4114 76.7338 14.9394C76.1843 15.4565 75.5324 15.8606 74.7782 16.1515C74.0347 16.4424 73.2212 16.5879 72.3377 16.5879ZM72.3215 14.3575C72.8279 14.3575 73.2912 14.2713 73.7115 14.0989C74.1424 13.9265 74.5196 13.6787 74.8428 13.3555C75.1661 13.0322 75.4139 12.6497 75.5863 12.2079C75.7694 11.7662 75.861 11.2759 75.861 10.7372C75.861 10.1984 75.7694 9.70819 75.5863 9.26643C75.4139 8.82466 75.1661 8.44215 74.8428 8.11891C74.5303 7.79567 74.1586 7.54785 73.7276 7.37545C73.2966 7.20305 72.8279 7.11685 72.3215 7.11685C71.8151 7.11685 71.3464 7.20305 70.9154 7.37545C70.4952 7.54785 70.1234 7.79567 69.8002 8.11891C69.477 8.44215 69.2238 8.82466 69.0406 9.26643C68.8682 9.70819 68.782 10.1984 68.782 10.7372C68.782 11.2651 68.8682 11.7554 69.0406 12.2079C69.2238 12.6497 69.4716 13.0322 69.784 13.3555C70.1073 13.6787 70.4844 13.9265 70.9154 14.0989C71.3464 14.2713 71.8151 14.3575 72.3215 14.3575ZM85.0565 16.394V5.08042H87.6748V14.2605H93.3478V16.394H85.0565ZM97.2189 9.63816H102.666V11.6746H97.2189V9.63816ZM97.4128 14.2929H103.571V16.394H94.8107V5.08042H103.36V7.1815H97.4128V14.2929ZM111.117 16.5879C110.222 16.5879 109.398 16.4478 108.644 16.1677C107.9 15.8768 107.249 15.4673 106.688 14.9394C106.139 14.4114 105.708 13.7918 105.395 13.0807C105.094 12.3696 104.943 11.5884 104.943 10.7372C104.943 9.88598 105.094 9.1048 105.395 8.39367C105.708 7.68253 106.144 7.06298 106.704 6.53502C107.265 6.00705 107.922 5.603 108.676 5.32285C109.43 5.03193 110.26 4.88647 111.165 4.88647C112.167 4.88647 113.067 5.05348 113.864 5.3875C114.672 5.72152 115.351 6.20638 115.901 6.8421L114.22 8.39367C113.81 7.96268 113.363 7.64482 112.878 7.4401C112.394 7.2246 111.866 7.11685 111.294 7.11685C110.745 7.11685 110.244 7.20305 109.791 7.37545C109.339 7.54785 108.946 7.79567 108.612 8.11891C108.288 8.44215 108.035 8.82466 107.852 9.26643C107.68 9.70819 107.593 10.1984 107.593 10.7372C107.593 11.2651 107.68 11.75 107.852 12.1918C108.035 12.6335 108.288 13.0214 108.612 13.3555C108.946 13.6787 109.333 13.9265 109.775 14.0989C110.228 14.2713 110.723 14.3575 111.262 14.3575C111.779 14.3575 112.28 14.2767 112.765 14.1151C113.261 13.9427 113.74 13.6572 114.204 13.2585L115.691 15.1495C115.076 15.6128 114.36 15.9683 113.541 16.2162C112.733 16.464 111.925 16.5879 111.117 16.5879ZM113.299 14.8101V10.5594H115.691V15.1495L113.299 14.8101Z" fill="white"/>
<path d="M137.023 16.1939C136.15 16.1939 135.337 16.0539 134.583 15.7737C133.839 15.4828 133.193 15.0734 132.643 14.5454C132.094 14.0174 131.663 13.3979 131.35 12.6868C131.048 11.9756 130.898 11.1944 130.898 10.3432C130.898 9.49202 131.048 8.71085 131.35 7.99972C131.663 7.28858 132.094 6.66903 132.643 6.14106C133.203 5.6131 133.855 5.20904 134.599 4.9289C135.342 4.63798 136.156 4.49252 137.039 4.49252C138.02 4.49252 138.903 4.66492 139.69 5.00971C140.487 5.34373 141.155 5.83937 141.694 6.49663L140.013 8.0482C139.625 7.60644 139.194 7.2778 138.72 7.06231C138.246 6.83604 137.729 6.7229 137.169 6.7229C136.641 6.7229 136.156 6.8091 135.714 6.9815C135.272 7.15389 134.89 7.40171 134.566 7.72496C134.243 8.0482 133.99 8.43071 133.807 8.87247C133.634 9.31424 133.548 9.80449 133.548 10.3432C133.548 10.882 133.634 11.3722 133.807 11.814C133.99 12.2558 134.243 12.6383 134.566 12.9615C134.89 13.2848 135.272 13.5326 135.714 13.705C136.156 13.8774 136.641 13.9636 137.169 13.9636C137.729 13.9636 138.246 13.8558 138.72 13.6403C139.194 13.414 139.625 13.0746 140.013 12.6221L141.694 14.1737C141.155 14.8309 140.487 15.332 139.69 15.6768C138.903 16.0215 138.014 16.1939 137.023 16.1939ZM146.18 16V11.3776L146.778 12.9615L141.8 4.68647H144.58L148.394 11.0382H146.794L150.624 4.68647H153.194L148.216 12.9615L148.798 11.3776V16H146.18Z" fill="white"/>
<path d="M118.2 15.4836L123.593 8.02655L128.986 15.4836H118.2Z" fill="#F36430" stroke="#F36430" stroke-width="0.436543"/>
<path d="M118.2 12.7575L123.593 5.30045L128.986 12.7575H118.2Z" stroke="#F36430" stroke-width="0.436543"/>
<path d="M118.2 10.062L123.593 2.60489L128.986 10.062H118.2Z" stroke="#F36430" stroke-width="0.436543"/>
</svg>
